<svg width="28" height="22" viewBox="0 0 28 22" fill="none" xmlns="http://www.w3.org/2000/svg">
<path fill-rule="evenodd" clip-rule="evenodd" d="M2.70175 0.400635H25.3333C26.7164 0.400635 27.848 1.53221 27.848 2.91526V19.2603C27.848 20.6433 26.7164 21.7749 25.3333 21.7749H2.70175C1.31871 21.7749 0.187134 20.6433 0.187134 19.2603V2.91526C0.187134 1.53221 1.31871 0.400635 2.70175 0.400635ZM2.70172 2.91528V19.2603H12.7602V2.91528H2.70172ZM25.3333 19.2603H15.2749V2.91528H25.3333V19.2603ZM24.0761 7.31582H16.5322V9.20178H24.0761V7.31582ZM16.5322 10.4591H24.0761V12.3451H16.5322V10.4591ZM24.0761 13.6024H16.5322V15.4883H24.0761V13.6024Z" fill="white"/>
</svg>
